<svg xmlns="http://www.w3.org/2000/svg" viewBox="0 0 277.6 277.6"><defs><style>.cls-1{fill:none;stroke:#ea6947;stroke-miterlimit:10;stroke-width:0.2px;}</style></defs><g id="Layer_2" data-name="Layer 2"><g id="Layer_1-2" data-name="Layer 1"><line class="cls-1" x1="22.5" x2="22.5" y2="277.5"/><line class="cls-1" x1="45.68" x2="45.68" y2="277.5"/><line class="cls-1" x1="68.86" x2="68.86" y2="277.5"/><line class="cls-1" x1="92.05" x2="92.05" y2="277.5"/><line class="cls-1" x1="115.23" x2="115.23" y2="277.5"/><line class="cls-1" x1="138.41" x2="138.41" y2="277.5"/><line class="cls-1" x1="161.59" x2="161.59" y2="277.5"/><line class="cls-1" x1="184.77" x2="184.77" y2="277.5"/><line class="cls-1" x1="207.95" x2="207.95" y2="277.5"/><line class="cls-1" x1="231.14" x2="231.14" y2="277.5"/><line class="cls-1" x1="254.32" x2="254.32" y2="277.5"/><line class="cls-1" x1="277.5" x2="277.5" y2="277.5"/><line class="cls-1" y1="277.5" x2="277.5" y2="277.5"/><line class="cls-1" y1="254.32" x2="277.5" y2="254.32"/><line class="cls-1" y1="231.14" x2="277.5" y2="231.14"/><line class="cls-1" y1="207.95" x2="277.5" y2="207.95"/><line class="cls-1" y1="184.77" x2="277.5" y2="184.77"/><line class="cls-1" y1="161.59" x2="277.5" y2="161.59"/><line class="cls-1" y1="138.41" x2="277.5" y2="138.41"/><line class="cls-1" y1="115.23" x2="277.5" y2="115.23"/><line class="cls-1" y1="92.05" x2="277.5" y2="92.05"/><line class="cls-1" y1="68.86" x2="277.5" y2="68.86"/><line class="cls-1" y1="45.68" x2="277.5" y2="45.68"/><line class="cls-1" y1="22.5" x2="277.5" y2="22.5"/></g></g></svg>