<svg xmlns="http://www.w3.org/2000/svg" viewBox="0 0 1000 999.37"><defs><style>.cls-1{fill:#ea6947;}</style></defs><g id="Layer_2" data-name="Layer 2"><g id="Layer_1-2" data-name="Layer 1"><path class="cls-1" d="M553.6,2.78l-.35,6L533.33,7.56l-3.88,65.8-7.18-.43,3.88-65.8L506.13,6,506.48,0Z"/><path class="cls-1" d="M596.15,82.85l-11.91-32.8-13-2.46-5.57,29.5-7.08-1.33L571.9,5.13l21.22,4q11.82,2.23,16.86,9t3.31,16a20.41,20.41,0,0,1-6.86,12.26Q601,51,592.12,51l12.52,33.44Zm-23.86-41,14.25,2.69q8.28,1.56,13.24-1.69c3.31-2.17,5.38-5.51,6.24-10s.2-8.49-2-11.53-6.23-5.09-12-6.19l-14.15-2.67Z"/><path class="cls-1" d="M642.71,27.12l-8.27,25.53,25.92,8.4-1.84,5.68-25.92-8.4-8.4,25.92,28.86,9.35-1.84,5.67L615.51,87.7,637.7,19.23,673.4,30.8l-1.83,5.67Z"/><path class="cls-1" d="M711.14,126.88l-6.48-3.14L695.23,52l-26.38,54.41-6.47-3.15,31.36-64.67,6.47,3.14,9.47,71.68L736,59.06l6.48,3.14Z"/><path class="cls-1" d="M796,102.51a30.12,30.12,0,0,1,3.53,17.69q-1,9.24-7.41,18.42t-14.73,13.09a30,30,0,0,1-17.78,2.58q-9.43-1.41-19.2-8.27L723,133.78,764.32,75l17.42,12.24Q791.51,94.07,796,102.51Zm-28.91,45.35q10.95-1.92,19-13.44t6.31-22.66q-1.86-11-14.14-19.67L766.78,84,732.32,133l11.52,8.1Q756.13,149.76,767.09,147.86Z"/><path class="cls-1" d="M863.36,155.85l-46.93,16-19.24,20.3-5.22-5,19.24-20.3,13.34-47.85,5.89,5.59-12.09,40,39.19-14.29Z"/><path class="cls-1" d="M894.37,202.39l-21.74,15.74,16,22.07-4.84,3.5-16-22.07-22.07,16,17.79,24.57-4.83,3.49-22-30.4L895,193.06l22,30.4-4.83,3.5Z"/><path class="cls-1" d="M900.11,304.21l-15.49-28.8-18,2.56-3.6-6.7,74.9-10.5,3.85,7.15-50.13,56.6-3.6-6.7Zm4.23-4.72,27.51-30.91-41,5.91Z"/><path class="cls-1" d="M976.77,347.51l-5.59,2.09-7-18.69-61.75,23-2.52-6.74,61.75-23.05-7-18.79,5.58-2.08Z"/><path class="cls-1" d="M996,433.74l-5.87,1-5.53-31.18-26.43,4.69,4.67,26.32L957,435.66l-4.67-26.33-32.6,5.79L918.48,408l70.77-12.56Z"/><path class="cls-1" d="M928.34,494.17l29.07-19.31-.67-13.24-30,1.53-.37-7.19,71.78-3.68,1.11,21.57q.62,12-4.82,18.52t-14.77,7a20.41,20.41,0,0,1-13.53-3.79q-5.73-4.19-7.82-12.83l-29.55,20.05Zm34.25-32.86.74,14.49q.43,8.42,4.76,12.47T979.3,492q7.08-.37,10.72-4.67t3.19-13.14l-.74-14.38Z"/><path class="cls-1" d="M993.53,526.16l-26.77-2-2,27.18-5.95-.44,2-27.17-27.18-2L931.43,552l-5.95-.44,2.73-37.43,71.79,5.24-2.73,37.43-5.95-.43Z"/><path class="cls-1" d="M923.83,573a20.53,20.53,0,0,1,8.42-7,18.08,18.08,0,0,1,10.33-1.29l-1.49,7.46a14.4,14.4,0,0,0-9.93,2.74q-4.7,3.25-6.24,11-1.42,7.15,1.42,12.08a12.07,12.07,0,0,0,8.49,6,11.18,11.18,0,0,0,7.77-.86,14.31,14.31,0,0,0,5.28-4.92,89.7,89.7,0,0,0,4.87-8.88,83.91,83.91,0,0,1,6-10.45,18,18,0,0,1,7-5.93q4.41-2.17,11-.86a17.7,17.7,0,0,1,9.17,4.77,19.19,19.19,0,0,1,5.11,9.3,27.86,27.86,0,0,1,.07,12.28q-2,9.78-7.94,14.83a18.37,18.37,0,0,1-13.73,4.44l1.53-7.66a13,13,0,0,0,8.66-3.2q4.18-3.36,5.55-10.22a16.79,16.79,0,0,0-1.26-11.26,11.42,11.42,0,0,0-8.39-6.08,10.9,10.9,0,0,0-7.62.89,15.16,15.16,0,0,0-5.29,5,88.75,88.75,0,0,0-4.91,8.82,86.71,86.71,0,0,1-6,10.34,18.37,18.37,0,0,1-7.13,6q-4.41,2.16-10.87.88a18.53,18.53,0,0,1-8.85-4.5,19.5,19.5,0,0,1-5.61-9.19,26.53,26.53,0,0,1-.27-12.85A30,30,0,0,1,923.83,573Z"/><path class="cls-1" d="M962.08,693.13,894.38,669l2.41-6.78,31.68,11.29,13.09-36.71L909.88,625.5l2.42-6.78L980,642.86l-2.41,6.78L947.17,638.8l-13.09,36.7,30.42,10.85Z"/><path class="cls-1" d="M895.51,693.2,875.72,672l2.11-4.46L898.94,686Z"/><path class="cls-1" d="M904.08,795.45l-5-3.3,11-16.63-55-36.4,4-6,55,36.4,11.08-16.71,5,3.29Z"/><path class="cls-1" d="M813.47,792l34.35,6.17,8.68-10-22.72-19.63,4.7-5.45,54.39,47-14.12,16.34q-7.86,9.11-16.29,10.05T847,831.27a20.44,20.44,0,0,1-7.15-12.09q-1.24-7,3.23-14.67l-35.21-6Zm47.46,0-9.48,11q-5.51,6.39-5.19,12.3t5.54,10.42c3.58,3.1,7.24,4.44,11,4.05s7.54-2.82,11.39-7.28l9.41-10.9Z"/><path class="cls-1" d="M838.37,860.22l-18-19.94-20.25,18.23-4-4.43,20.25-18.24-18.23-20.25-22.54,20.3-4-4.43,27.89-25.11,48.16,53.49L819.82,885l-4-4.43Z"/><path class="cls-1" d="M717.75,869.62l6-4,66.88,27.68-34-50,6-4L803,898.66l-6,4.05-66.82-27.6,33.89,49.94-5.95,4Z"/><path class="cls-1" d="M696.53,955.29a30.21,30.21,0,0,1-17.09-5.78q-7.53-5.46-12.26-15.62t-4-19.3a30,30,0,0,1,6.64-16.7q5.94-7.47,16.76-12.49l19.3-9,30.3,65.18-19.3,9Q706.09,955.61,696.53,955.29Zm-24.85-47.71q-3.81,10.45,2.12,23.23t16.48,16.78q10.5,3.9,24.11-2.42l12.77-5.94-25.27-54.36-12.78,5.94Q675.5,897.14,671.68,907.58Z"/><path class="cls-1" d="M616.55,986.93l9.64-48.63-7.93-26.83,6.9-2,7.93,26.82,34.74,35.52-7.79,2.3L631.5,943.59l-7.26,41.07Z"/><path class="cls-1" d="M560.61,990.4l-2.68-26.7-27.12,2.72-.59-5.93,27.11-2.73-2.73-27.11-30.18,3-.6-5.93L561.17,924l7.2,71.61L531,999.37l-.6-5.94Z"/><path class="cls-1" d="M469.72,944.26l32.69,1,6.8-16.86,7.61.24-28.44,70.09-8.12-.25-23.88-71.74L464,927Zm2,6,13,39.29,15.41-38.4Z"/><path class="cls-1" d="M393.83,989l1-5.89,19.67,3.31,10.92-65,7.09,1.2-10.91,65,19.77,3.32-1,5.88Z"/><path class="cls-1" d="M309.55,962.59l2-5.61,29.78,10.8,9.14-25.23-25.13-9.12,2-5.6,25.14,9.11,11.28-31.13,6.77,2.46-24.5,67.57Z"/><path class="cls-1" d="M291.1,873.72l2.14,34.83,11.81,6.05,13.69-26.73,6.4,3.28-32.76,64-19.22-9.84q-10.71-5.49-13.62-13.45t1.35-16.29a20.43,20.43,0,0,1,10.05-9.81q6.49-2.87,15-.34l-2.55-35.62Zm11.28,46.09-12.91-6.6q-7.5-3.86-13.17-2.13c-3.79,1.14-6.72,3.76-8.82,7.85s-2.6,8.08-1.33,11.62,4.53,6.65,9.78,9.34l12.81,6.56Z"/><path class="cls-1" d="M230.73,914.05l15.13-22.16-22.5-15.37,3.36-4.93L249.23,887l15.37-22.5-25.05-17.11,3.36-4.92,31,21.16L233.31,923l-31-21.17,3.37-4.92Z"/><path class="cls-1" d="M225.16,830.19A20.43,20.43,0,0,1,227,841a18.1,18.1,0,0,1-4.06,9.58l-5.71-5a14.44,14.44,0,0,0,2.62-10q-.47-5.7-6.4-10.93-5.47-4.83-11.16-4.84a12.09,12.09,0,0,0-9.49,4.31,11.14,11.14,0,0,0-3.16,7.15,14.48,14.48,0,0,0,1.6,7,92.71,92.71,0,0,0,5.24,8.67,84.1,84.1,0,0,1,6,10.4,18,18,0,0,1,1.59,9.08q-.34,4.9-4.77,9.92a17.63,17.63,0,0,1-8.72,5.54,19.34,19.34,0,0,1-10.62-.25,28,28,0,0,1-10.65-6.11q-7.49-6.6-8.84-14.31a18.42,18.42,0,0,1,3.05-14.11l5.86,5.17a13,13,0,0,0-1.58,9.1q.81,5.31,6,9.93a16.75,16.75,0,0,0,10.38,4.56,11.39,11.39,0,0,0,9.46-4.2,10.82,10.82,0,0,0,3.06-7,15.07,15.07,0,0,0-1.65-7.07,85,85,0,0,0-5.17-8.67A88.39,88.39,0,0,1,184,838.52a18.56,18.56,0,0,1-1.63-9.19q.36-4.89,4.71-9.83a18.47,18.47,0,0,1,8.33-5.4,19.41,19.41,0,0,1,10.77-.24,26.56,26.56,0,0,1,11.24,6.22A29.77,29.77,0,0,1,225.16,830.19Z"/><path class="cls-1" d="M102.08,803.13l54.78-46.53,4.66,5.48-25.63,21.77,25.23,29.7,25.63-21.77,4.66,5.49L136.63,843.8,132,838.32l24.61-20.91-25.23-29.7-24.61,20.9Z"/><path class="cls-1" d="M135.33,745.51,163.57,739l2.81,4.06L139.9,752.1Z"/><path class="cls-1" d="M42.46,701.87l5.34-2.67,8.9,17.85,59-29.42,3.21,6.44-59,29.43,9,17.94-5.34,2.66Z"/><path class="cls-1" d="M90.74,625.06,68.2,651.71l4.35,12.53,28.37-9.84,2.36,6.8L35.37,684.76l-7.08-20.4q-3.94-11.37-.54-19.13T40,634.4a20.4,20.4,0,0,1,14-.14q6.66,2.41,11.08,10.14L87.9,616.9ZM67,666.16l-4.75-13.7q-2.76-8-8-10.64t-11.79-.43q-6.7,2.33-9,7.48t.6,13.5L38.74,676Z"/><path class="cls-1" d="M19.24,612.41l26.26-5.52-5.6-26.67L45.73,579l5.61,26.67L78,600.05l-6.25-29.68,5.84-1.23,7.72,36.73L14.88,620.68,7.16,584,13,582.72Z"/><path class="cls-1" d="M71.7,503.36l.5,7.18L14.66,554.45,75,550.24l.5,7.18-71.7,5-.5-7.18,57.44-43.91L.5,515.55,0,508.37Z"/><path class="cls-1" d="M8.16,442.13a30.26,30.26,0,0,1,13.55-11.91q8.5-3.78,19.66-2.79t18.7,6.21a29.81,29.81,0,0,1,11.13,14.1q3.49,8.88,2.44,20.76l-1.89,21.2L.16,483.33l1.89-21.2Q3.1,450.25,8.16,442.13Zm53.73,2.35q-7.12-8.53-21.17-9.78T18,440.57q-8.62,7.14-10,22.08l-1.25,14L66.45,482l1.25-14Q69,453,61.89,444.48Z"/><path class="cls-1" d="M20.73,357.05,58,389.71l27.19,6.53-1.68,7L56.36,396.7,8.23,409l1.9-7.9,40.67-9.47L18.85,364.85Z"/><path class="cls-1" d="M45.69,306.86l24.47,11,11.2-24.84,5.44,2.46L75.59,320.35l24.84,11.2L112.9,303.9l5.44,2.45-15.43,34.21L37.3,311l15.42-34.21,5.44,2.45Z"/><path class="cls-1" d="M131.21,251.25,113.91,279l11.17,14.36-4,6.45L74.72,240l4.3-6.89,74,15.37L149,255Zm-6.2-1.32-40.49-8.52L110,274Z"/><path class="cls-1" d="M130.63,163.21l4.59,3.81-12.74,15.35,50.73,42.08-4.6,5.54-50.73-42.08-12.8,15.44-4.59-3.81Z"/><path class="cls-1" d="M195.62,103.55l3.83,4.56-24.24,20.38L192.48,149l20.46-17.2,3.84,4.56-20.46,17.2L217.62,179l-5.51,4.63-46.25-55Z"/><path class="cls-1" d="M281.8,132l-31.25-15.53-11.13,7.21,16.31,25.2-6,3.91L210.63,92.43l18.12-11.74q10.11-6.54,18.45-5.08t13.44,9.3a20.45,20.45,0,0,1,3.48,13.61q-.76,7-7.2,13.18l32.13,15.58Zm-45.57-13.24,12.17-7.88q7.08-4.59,8.42-10.36t-2.39-11.55q-3.85-6-9.41-7t-13,3.8L220,93.61Z"/><path class="cls-1" d="M277,59.53l11.64,24.18L313.2,71.89l2.58,5.38L291.23,89.09l11.82,24.55,27.33-13.16,2.58,5.38-33.81,16.27L267.93,57.27,301.75,41l2.59,5.37Z"/><path class="cls-1" d="M352.38,96.62a20.41,20.41,0,0,1-10.23-3.84,18.05,18.05,0,0,1-6.26-8.31l7.21-2.42a14.47,14.47,0,0,0,7.32,7.26q5.16,2.44,12.66-.08Q370,86.92,372.86,82a12.14,12.14,0,0,0,1-10.38,11.23,11.23,0,0,0-4.61-6.31,14.52,14.52,0,0,0-6.9-2.14,92.11,92.11,0,0,0-10.13.2,84,84,0,0,1-12,0,18.11,18.11,0,0,1-8.66-3.17c-2.71-1.83-4.78-4.87-6.19-9.09a17.63,17.63,0,0,1-.43-10.32,19.24,19.24,0,0,1,5.53-9.07,28,28,0,0,1,10.62-6.17q9.45-3.16,16.81-.48a18.39,18.39,0,0,1,10.69,9.7l-7.41,2.49a13,13,0,0,0-7.09-5.93q-5-2-11.62.27a16.75,16.75,0,0,0-9.14,6.7,11.39,11.39,0,0,0-1.11,10.29,10.84,10.84,0,0,0,4.57,6.17,15,15,0,0,0,6.94,2.12,88.49,88.49,0,0,0,10.1-.13,85.9,85.9,0,0,1,11.95.06A18.42,18.42,0,0,1,374.54,60q4.06,2.76,6.16,9a18.5,18.5,0,0,1,.51,9.92A19.53,19.53,0,0,1,376,88.37,26.49,26.49,0,0,1,365,95,29.74,29.74,0,0,1,352.38,96.62Z"/><path class="cls-1" d="M437.54,3.71l12.73,70.74-7.08,1.27-6-33.09-38.36,6.91,6,33.09-7.08,1.27L385,13.16l7.09-1.27,5.72,31.78,38.35-6.91L430.45,5Z"/><path class="cls-1" d="M470.73,61.4l-8.52,27.71-4.92.39L462.73,62Z"/></g></g></svg>